<?xml version="1.0" encoding="UTF-8"?>
<!DOCTYPE svg PUBLIC "-//W3C//DTD SVG 1.1//EN" "http://www.w3.org/Graphics/SVG/1.1/DTD/svg11.dtd">
<!-- Creator: CorelDRAW X7 -->
<svg xmlns="http://www.w3.org/2000/svg" xml:space="preserve" width="279.4mm" height="213.9mm" version="1.1" style="shape-rendering:geometricPrecision; text-rendering:geometricPrecision; image-rendering:optimizeQuality; fill-rule:evenodd; clip-rule:evenodd"
viewBox="0 0 27940 21390"
 xmlns:xlink="http://www.w3.org/1999/xlink">
 <defs>
   <clipPath id="id0" style="clip-rule:nonzero">
    <path d="M2079 10987l0 -3586 476 0 0 1477 1853 0 0 -1477 476 0 0 3586 -476 0 0 -1688 -1853 0 0 1688 -476 0zm3204 0l1375 -3586 522 0 1459 3586 -540 0 -414 -1087 -1510 0 -389 1087 -503 0zm1031 -1473l1222 0 -374 -994c-112,-302 -198,-551 -257,-748 -49,233 -115,463 -198,690l-393 1052zm3193 -2113l2184 0 0 3165 320 0 0 1257 -420 0 0 -836 -2374 0 0 836 -421 0 0 -1257 276 0c290,-436 435,-1316 435,-2641l0 -524zm1708 421l-1252 0 0 183c0,306 -27,724 -82,1254 -55,530 -163,966 -323,1307l1657 0 0 -2744zm1363 -421l2814 0 0 3586 -475 0 0 -3165 -1863 0 0 3165 -476 0 0 -3586zm3605 0l430 0 0 2839 1909 -2839 470 0 0 3586 -431 0 0 -2832 -1903 2832 -475 0 0 -3586zm6143 2328l476 120c-99,390 -278,686 -536,891 -258,204 -573,307 -946,307 -386,0 -700,-79 -942,-237 -242,-156 -425,-384 -551,-682 -126,-299 -190,-619 -190,-961 0,-373 71,-698 214,-976 143,-278 345,-489 608,-634 263,-144 553,-216 868,-216 359,0 660,91 904,274 245,183 415,439 511,769l-466 110c-82,-260 -203,-450 -361,-569 -158,-119 -357,-178 -596,-178 -275,0 -505,66 -689,197 -185,132 -315,310 -389,532 -75,223 -113,452 -113,689 0,304 44,570 133,798 88,227 226,397 413,509 187,113 389,169 607,169 265,0 489,-77 672,-229 184,-154 308,-381 373,-683zm1083 -2328l476 0 0 1527 853 0c399,0 688,47 868,140 178,93 307,220 385,380 78,160 117,325 117,494 0,278 -94,522 -284,731 -188,209 -540,314 -1055,314l-1360 0 0 -3586zm476 3180l866 0c351,0 580,-63 687,-187 106,-124 159,-275 159,-452 0,-142 -38,-264 -116,-364 -77,-100 -180,-166 -309,-195 -128,-29 -346,-44 -653,-44l-634 0 0 1242z"/>
   </clipPath>
 </defs>
 <g id="Слой_x0020_1">
  <metadata id="CorelCorpID_0Corel-Layer"/>
  <g style="clip-path:url(#id0)">
   <image x="2079" y="7341" width="24029" height="4482" xlink:href="2.3_Images\2.3_ImgID1.png"/>
  </g>
 </g>
</svg>
