<?xml version="1.0" encoding="UTF-8"?>
<!DOCTYPE svg PUBLIC "-//W3C//DTD SVG 1.1//EN" "http://www.w3.org/Graphics/SVG/1.1/DTD/svg11.dtd">
<!-- Creator: CorelDRAW X7 -->
<svg xmlns="http://www.w3.org/2000/svg" xml:space="preserve" width="279.4mm" height="213.9mm" version="1.1" style="shape-rendering:geometricPrecision; text-rendering:geometricPrecision; image-rendering:optimizeQuality; fill-rule:evenodd; clip-rule:evenodd"
viewBox="0 0 27940 21390"
 xmlns:xlink="http://www.w3.org/1999/xlink">
 <defs>
  <style type="text/css">
   <![CDATA[
    .str0 {stroke:#2B2A29;stroke-width:17.64}
    .fil0 {fill:#2B2A29}
    .fil7 {fill:blue;fill-rule:nonzero}
    .fil4 {fill:lime;fill-rule:nonzero}
    .fil3 {fill:aqua;fill-rule:nonzero}
    .fil6 {fill:red;fill-rule:nonzero}
    .fil5 {fill:#FF01FF;fill-rule:nonzero}
    .fil2 {fill:yellow;fill-rule:nonzero}
    .fil1 {fill:white;fill-rule:nonzero}
   ]]>
  </style>
     <clipPath id="id0" style="clip-rule:nonzero">
      <path d="M2503 10063l251 0 0 829c114,0 195,-23 241,-67 47,-45 106,-151 178,-320 52,-125 95,-212 129,-263 34,-52 83,-95 146,-130 62,-34 132,-52 207,-52 97,0 147,1 153,3l0 216c-9,0 -26,0 -51,-1 -27,-1 -44,-1 -50,-1 -80,0 -139,19 -178,58 -40,38 -84,121 -135,247 -64,160 -118,262 -162,303 -43,42 -96,75 -157,100 122,34 243,147 362,339l389 629 -311 0 -317 -512c-86,-142 -159,-240 -217,-293 -59,-53 -134,-80 -227,-80l0 885 -251 0 0 -1890z"/>
     </clipPath>
     <clipPath id="id1" style="clip-rule:nonzero">
      <path d="M3930 11033c0,-313 84,-559 253,-736 168,-178 386,-266 652,-266 175,0 332,42 472,125 140,83 247,199 321,348 73,149 110,318 110,507 0,191 -39,363 -116,514 -77,151 -187,265 -329,343 -142,78 -295,117 -459,117 -178,0 -337,-44 -477,-129 -140,-86 -247,-203 -319,-352 -72,-148 -108,-305 -108,-471zm259 4c0,228 61,407 183,537 122,131 276,197 461,197 188,0 342,-66 464,-198 122,-132 182,-320 182,-563 0,-153 -25,-287 -77,-402 -52,-114 -128,-203 -228,-266 -101,-63 -213,-95 -337,-95 -177,0 -329,61 -457,183 -128,121 -191,323 -191,607z"/>
     </clipPath>
     <clipPath id="id2" style="clip-rule:nonzero">
      <path d="M6070 11953l0 -1890 251 0 0 778 977 0 0 -778 251 0 0 1890 -251 0 0 -890 -977 0 0 890 -251 0z"/>
     </clipPath>
     <clipPath id="id3" style="clip-rule:nonzero">
      <path d="M7972 10063l250 0 0 1668 982 0 0 -1668 251 0 0 1668 172 0 0 747 -222 0 0 -525 -1433 0 0 -1890z"/>
     </clipPath>
     <clipPath id="id4" style="clip-rule:nonzero">
      <path d="M9924 11953l0 -1890 1365 0 0 221 -1114 0 0 581 1043 0 0 222 -1043 0 0 644 1159 0 0 222 -1410 0z"/>
     </clipPath>
     <clipPath id="id5" style="clip-rule:nonzero">
      <path d="M11682 10063l1484 0 0 1890 -251 0 0 -1669 -982 0 0 1669 -251 0 0 -1890z"/>
     </clipPath>
     <clipPath id="id6" style="clip-rule:nonzero">
      <path d="M14058 11953l0 -1669 -623 0 0 -221 1497 0 0 221 -623 0 0 1669 -251 0z"/>
     </clipPath>
     <clipPath id="id7" style="clip-rule:nonzero">
      <path d="M14999 10063l251 0 619 1162 538 -1162 247 0 -708 1470c-89,184 -161,305 -218,361 -57,57 -138,85 -243,85 -65,0 -143,-15 -237,-45l0 -213c67,38 138,58 213,58 60,0 113,-20 157,-59 44,-40 93,-129 146,-268l-765 -1389z"/>
     </clipPath>
     <clipPath id="id8" style="clip-rule:nonzero">
      <path d="M16483 11953l726 -1890 275 0 769 1890 -285 0 -218 -573 -796 0 -205 573 -266 0zm544 -776l644 0 -197 -524c-59,-160 -104,-291 -135,-395 -26,123 -61,244 -104,364l-208 555z"/>
     </clipPath>
     <clipPath id="id9" style="clip-rule:nonzero">
      <path d="M18650 10063l1180 0 0 1890 -251 0 0 -1669 -679 0 0 974c0,198 -9,343 -27,435 -19,92 -58,163 -117,215 -60,51 -136,77 -227,77 -55,0 -121,-12 -199,-35l45 -222c41,22 76,32 105,32 56,0 99,-21 127,-64 28,-42 43,-143 43,-301l0 -1332z"/>
     </clipPath>
     <clipPath id="id10" style="clip-rule:nonzero">
      <path d="M20253 10063l251 0 0 805 450 0c210,0 362,24 457,73 94,50 162,116 203,201 41,84 62,171 62,260 0,147 -50,275 -150,385 -99,111 -285,166 -556,166l-717 0 0 -1890zm251 1676l456 0c186,0 306,-33 362,-99 56,-65 84,-145 84,-238 0,-75 -20,-139 -61,-192 -40,-53 -95,-87 -162,-102 -68,-16 -183,-24 -345,-24l-334 0 0 655z"/>
     </clipPath>
     <clipPath id="id11" style="clip-rule:nonzero">
      <path d="M21985 11953l0 -1890 251 0 0 778 977 0 0 -778 251 0 0 1890 -251 0 0 -890 -977 0 0 890 -251 0z"/>
     </clipPath>
     <clipPath id="id12" style="clip-rule:nonzero">
      <path d="M23805 11033c0,-313 84,-559 253,-736 168,-178 386,-266 652,-266 175,0 332,42 472,125 140,83 247,199 321,348 73,149 110,318 110,507 0,191 -39,363 -116,514 -77,151 -187,265 -329,343 -142,78 -295,117 -459,117 -178,0 -337,-44 -477,-129 -140,-86 -247,-203 -319,-352 -72,-148 -108,-305 -108,-471zm259 4c0,228 61,407 183,537 122,131 276,197 461,197 188,0 342,-66 464,-198 122,-132 182,-320 182,-563 0,-153 -26,-287 -77,-402 -52,-114 -128,-203 -228,-266 -101,-63 -213,-95 -337,-95 -177,0 -330,61 -457,183 -128,121 -191,323 -191,607z"/>
     </clipPath>
 </defs>
 <g id="Слой_x0020_1">
  <metadata id="CorelCorpID_0Corel-Layer"/>
  <g id="_2319656572176">
   <rect class="fil0 str0" x="1373" y="7109" width="25477" height="8021"/>
   <g>
    <g style="clip-path:url(#id0)">
     <polygon class="fil1" points="2503,10059 3828,10060 3826,11954 2501,11953 "/>
    </g>
   </g>
   <g>
    <g style="clip-path:url(#id1)">
     <polygon id="1" class="fil1" points="3931,10030 7023,10033 7021,11987 3928,11984 "/>
     <polygon id="2" class="fil2" points="5593,10032 5740,10032 5737,11986 5591,11986 "/>
    </g>
   </g>
   <g>
    <g style="clip-path:url(#id2)">
     <polygon id="3" class="fil1" points="6070,10061 7023,10062 7021,11954 6068,11953 "/>
     <polygon id="4" class="fil2" points="5593,10060 7551,10063 7549,11955 5591,11952 "/>
    </g>
   </g>
   <g>
    <g style="clip-path:url(#id3)">
     <polygon id="5" class="fil1" points="7972,10061 7023,10060 7020,12475 7969,12477 "/>
     <polygon id="6" class="fil2" points="5593,10058 9883,10063 9880,12479 5590,12474 "/>
     <polygon id="7" class="fil3" points="8453,10062 9630,10063 9627,12478 8450,12477 "/>
    </g>
   </g>
   <g>
    <g style="clip-path:url(#id4)">
     <polygon id="8" class="fil2" points="9924,10061 9883,10061 9881,11953 9922,11953 "/>
     <polygon id="9" class="fil3" points="8453,10059 12743,10064 12741,11956 8451,11951 "/>
     <polygon id="10" class="fil4" points="11313,10063 11336,10063 11334,11954 11311,11954 "/>
    </g>
   </g>
   <g>
    <g style="clip-path:url(#id5)">
     <polygon id="11" class="fil3" points="11682,10061 12743,10062 12741,11954 11680,11953 "/>
     <polygon id="12" class="fil4" points="11313,10061 13168,10063 13166,11955 11311,11952 "/>
    </g>
   </g>
   <g>
    <g style="clip-path:url(#id6)">
     <polygon id="13" class="fil3" points="13435,10061 12743,10060 12741,11951 13433,11952 "/>
     <polygon id="14" class="fil4" points="11313,10059 15604,10063 15602,11955 11311,11950 "/>
     <polygon id="15" class="fil5" points="14174,10062 14932,10063 14930,11954 14171,11953 "/>
    </g>
   </g>
   <g>
    <g style="clip-path:url(#id7)">
     <polygon id="16" class="fil4" points="14999,10061 15604,10061 15602,11979 14996,11979 "/>
     <polygon id="17" class="fil5" points="14174,10060 16654,10063 16652,11981 14171,11978 "/>
    </g>
   </g>
   <g>
    <g style="clip-path:url(#id8)">
     <polygon id="18" class="fil4" points="16486,10062 15604,10061 15602,11952 16483,11953 "/>
     <polygon id="19" class="fil5" points="14174,10059 18464,10064 18462,11955 14171,11950 "/>
     <polygon id="20" class="fil6" points="17034,10062 18255,10064 18253,11955 17032,11953 "/>
    </g>
   </g>
   <g>
    <g style="clip-path:url(#id9)">
     <polygon id="21" class="fil5" points="18332,10061 18464,10061 18462,11985 18330,11984 "/>
     <polygon id="22" class="fil6" points="17034,10060 19832,10063 19830,11986 17032,11983 "/>
    </g>
   </g>
   <g>
    <g style="clip-path:url(#id10)">
     <polygon id="23" class="fil6" points="20253,10062 21324,10064 21322,11954 20251,11953 "/>
     <polygon id="24" class="fil7" points="19894,10062 21677,10064 21675,11954 19892,11952 "/>
    </g>
   </g>
   <g>
    <g style="clip-path:url(#id11)">
     <polygon id="25" class="fil6" points="21985,10061 21324,10060 21322,11952 21983,11953 "/>
     <polygon id="26" class="fil7" points="19894,10059 23466,10063 23464,11955 19892,11950 "/>
    </g>
   </g>
   <g>
    <g style="clip-path:url(#id12)">
     <polygon id="27" class="fil7" points="23806,10030 25614,10032 25612,11986 23803,11984 "/>
    </g>
   </g>
  </g>
 </g>
</svg>
