<?xml version="1.0" encoding="UTF-8"?>
<!DOCTYPE svg PUBLIC "-//W3C//DTD SVG 1.1//EN" "http://www.w3.org/Graphics/SVG/1.1/DTD/svg11.dtd">
<!-- Creator: CorelDRAW X7 -->
<svg xmlns="http://www.w3.org/2000/svg" xml:space="preserve" width="219.094mm" height="169.3mm" version="1.1" style="shape-rendering:geometricPrecision; text-rendering:geometricPrecision; image-rendering:optimizeQuality; fill-rule:evenodd; clip-rule:evenodd"
viewBox="0 0 21909 16930"
 xmlns:xlink="http://www.w3.org/1999/xlink">
 <defs>
   <clipPath id="id0" style="clip-rule:nonzero">
    <path d="M1067 4175l0 -3015 400 0 0 1242 1558 0 0 -1242 400 0 0 3015 -400 0 0 -1419 -1558 0 0 1419 -400 0zm2693 0l1157 -3015 438 0 1228 3015 -454 0 -349 -914 -1270 0 -327 914 -423 0zm868 -1238l1027 0 -314 -836c-95,-254 -167,-464 -216,-629 -42,196 -97,389 -167,580l-330 885zm2685 -1777l1836 0 0 2661 269 0 0 1057 -354 0 0 -703 -1995 0 0 703 -354 0 0 -1057 231 0c245,-366 367,-1107 367,-2220l0 -441zm1436 354l-1053 0 0 154c0,257 -23,609 -70,1054 -45,446 -136,812 -271,1099l1394 0 0 -2307zm1146 -354l2366 0 0 3015 -400 0 0 -2661 -1566 0 0 2661 -400 0 0 -3015zm3031 0l362 0 0 2387 1605 -2387 395 0 0 3015 -362 0 0 -2381 -1601 2381 -399 0 0 -3015zm5166 1957l400 101c-84,328 -234,577 -451,749 -217,172 -482,258 -796,258 -324,0 -588,-66 -791,-198 -204,-132 -358,-324 -464,-574 -106,-252 -159,-520 -159,-808 0,-314 59,-587 179,-821 120,-234 291,-411 512,-533 221,-121 464,-182 730,-182 301,0 555,77 760,231 205,153 349,369 429,647l-391 92c-70,-219 -172,-379 -304,-478 -133,-101 -300,-151 -501,-151 -231,0 -425,56 -580,167 -155,111 -265,260 -327,447 -63,187 -95,380 -95,579 0,256 37,480 112,671 74,191 190,334 347,429 157,94 327,141 510,141 224,0 412,-64 566,-193 154,-129 259,-320 314,-574zm910 -1957l400 0 0 1284 718 0c335,0 578,40 729,117 150,79 258,186 324,320 66,135 99,273 99,416 0,234 -80,439 -239,614 -159,176 -454,264 -887,264l-1144 0 0 -3015zm400 2674l728 0c296,0 488,-53 578,-157 89,-105 134,-232 134,-380 0,-120 -32,-223 -97,-307 -65,-84 -152,-139 -260,-163 -108,-25 -291,-37 -550,-37l-533 0 0 1044z"/>
   </clipPath>
 </defs>
 <g id="Слой_x0020_1">
  <metadata id="CorelCorpID_0Corel-Layer"/>
  <g style="clip-path:url(#id0)">
   <image x="1067" y="1109" width="20205" height="3769" xlink:href="Надпись_Images\Надпись_ImgID1.png"/>
  </g>
 </g>
</svg>
