<?xml version="1.0" encoding="UTF-8"?>
<!DOCTYPE svg PUBLIC "-//W3C//DTD SVG 1.1//EN" "http://www.w3.org/Graphics/SVG/1.1/DTD/svg11.dtd">
<!-- Creator: CorelDRAW X7 -->
<svg xmlns="http://www.w3.org/2000/svg" xml:space="preserve" width="279.4mm" height="213.9mm" version="1.1" style="shape-rendering:geometricPrecision; text-rendering:geometricPrecision; image-rendering:optimizeQuality; fill-rule:evenodd; clip-rule:evenodd"
viewBox="0 0 27940 21390"
 xmlns:xlink="http://www.w3.org/1999/xlink">
 <defs>
   <clipPath id="id0" style="clip-rule:nonzero">
    <path d="M4662 4329c0,332 -116,562 -347,689 -232,126 -720,189 -1465,189 -798,0 -1300,-72 -1505,-216 -204,-145 -307,-366 -307,-662l0 -665c0,-410 39,-736 118,-978 80,-243 187,-440 320,-592 212,-231 443,-427 693,-586 250,-160 477,-289 681,-389 165,74 381,197 650,371 269,171 510,373 722,604 132,152 239,366 319,641 81,276 121,586 121,929l0 665zm2812 -1070l-566 0c-21,135 -74,258 -162,370l430 389 -160 160 -421 -402c-110,89 -227,145 -351,168l0 0 0 566 -212 0 0 -566c-137,-16 -258,-67 -363,-150l-409 384 -160 -160 418 -377c-80,-110 -131,-237 -150,-382l0 0 -566 0 0 -213 566 0c14,-155 58,-287 133,-398l-401 -377 160 -160 384 383c104,-76 233,-122 388,-137l0 0 0 -565 212 0 0 565c140,18 265,70 375,156l397 -402 160 160 -413 395c81,112 130,239 145,380l0 0 566 0 0 213zm-791 -110c0,-156 -54,-290 -162,-400 -108,-111 -238,-166 -390,-166 -154,0 -284,56 -391,168 -106,110 -159,244 -159,400 0,160 53,294 159,404 107,109 238,164 393,164 150,0 280,-55 388,-164 108,-111 162,-246 162,-406zm4767 995c0,203 -68,374 -203,511 -135,136 -299,204 -488,204 -208,0 -376,-63 -505,-188 -128,-124 -195,-286 -199,-484l-95 0c-28,60 -61,106 -100,136l38 124 76 -7 13 24 -187 54 -13 -27 53 -31 -40 -116c-33,6 -61,8 -84,8 -90,0 -160,-23 -212,-70 -52,-47 -78,-105 -78,-173l0 0c0,-42 12,-91 36,-144l-560 -638c-19,55 -39,119 -61,194 102,46 191,126 268,241 78,113 117,240 117,380 0,196 -70,364 -208,505 -138,141 -301,212 -490,212 -194,0 -359,-70 -494,-208 -136,-140 -204,-309 -204,-507 0,-195 68,-363 202,-503 136,-141 300,-212 491,-212 44,0 82,5 114,13 32,6 66,19 102,36 37,-119 116,-356 236,-714 25,-78 76,-117 154,-117l198 0c43,0 65,11 65,33l0 0c0,32 -22,47 -65,47l-192 0c-43,0 -75,46 -94,137l-20 80 1078 0 11 -85c-43,-9 -90,-20 -143,-34 -52,-14 -87,-34 -103,-61 -6,-8 -9,-17 -9,-26l0 0c0,-14 14,-23 40,-28l554 -38c15,0 23,5 27,14 6,9 9,17 9,24 0,17 -20,47 -60,88 -39,41 -101,61 -187,61l-23 85 1 0c81,7 136,47 167,121l151 404c72,-26 148,-40 229,-40 187,0 348,69 484,206 135,137 203,307 203,509zm-131 0c0,-160 -56,-296 -167,-410 -110,-115 -241,-173 -394,-173 -58,0 -116,11 -174,31l141 424c106,0 160,45 160,134 0,95 -41,143 -124,143 -74,0 -122,-36 -144,-106l-430 0c6,165 59,297 160,394 103,97 238,146 406,146 162,0 297,-55 403,-165 109,-110 163,-249 163,-418zm-872 -648l-164 -364 1 0 -392 770c57,49 88,113 95,191l0 0 68 0c16,-162 63,-291 138,-388 76,-96 161,-166 254,-209zm197 597l-156 -474c-76,28 -142,83 -200,166 -56,82 -90,185 -101,308l457 0zm-443 -1055l-1 0 -1202 0 -54 166 587 677c11,-8 30,-24 58,-48l-57 -123 -81 -13 0 -38 200 0 0 38 -52 13 48 103c22,8 43,12 64,12 23,0 52,3 86,8l404 -795zm-333 1049c0,-47 -16,-86 -50,-118 -32,-33 -73,-50 -122,-50 -50,0 -93,17 -127,50 -34,33 -50,72 -50,117 0,48 16,89 50,122 34,34 77,51 127,51 49,0 90,-17 122,-51 34,-34 50,-75 50,-121zm-774 56c0,-226 -98,-396 -293,-509l-209 445c17,24 25,44 25,61 0,59 -33,89 -100,89l0 0c-58,0 -87,-29 -87,-87l0 0c0,-58 34,-89 102,-96 43,-117 97,-266 161,-448 -22,-13 -47,-23 -76,-28 -30,-6 -61,-9 -95,-9 -154,0 -285,58 -395,173 -110,114 -165,250 -165,410 0,159 56,297 167,412 110,114 244,171 399,171 151,0 283,-57 395,-170 114,-116 171,-254 171,-414zm5376 -1390l-2723 0 1362 -1063 1361 1063zm-234 505c0,97 -29,182 -87,256 -56,74 -126,120 -211,137l0 782 -1659 0 0 -782c-86,-17 -156,-63 -213,-137 -56,-74 -85,-159 -85,-256 0,-108 39,-201 117,-279 77,-80 170,-120 279,-120l1468 0c106,0 197,40 275,120 77,78 116,171 116,279zm-34 1601l-2187 0 0 -213 2187 0 0 213zm-132 -1599c0,-61 -22,-114 -67,-159 -44,-45 -97,-67 -159,-67l-1471 0c-63,0 -117,22 -161,67 -43,45 -65,99 -65,161 0,63 22,117 67,162 46,43 99,65 158,65 117,0 175,-48 175,-142 0,-39 -27,-58 -80,-58 -26,0 -39,18 -39,55l-166 0c0,-153 67,-229 201,-229 71,0 131,20 178,61 48,40 72,96 72,169 0,104 -33,182 -101,233 -65,48 -121,73 -167,73l0 608 1327 0 0 -608c-46,0 -103,-25 -169,-73 -66,-51 -99,-129 -99,-233 0,-73 24,-129 70,-169 47,-41 108,-61 181,-61 134,0 200,76 200,229l-166 0c0,-37 -12,-55 -39,-55 -53,0 -80,20 -80,60 0,93 58,140 175,140 58,0 110,-22 156,-65 46,-45 69,-100 69,-164zm4160 -103l-1231 1221 -798 0 936 -932 -2429 0 0 -587 2429 0 -936 -931 798 0 1231 1229zm5415 1702l-5122 0 0 -987 966 0 0 629 1531 0 0 -1986 630 419 -498 410 0 1157 1527 0 0 -629 966 0 0 987zm3594 547c0,67 -27,133 -79,199 -52,67 -116,100 -194,100l-2939 0c-78,0 -143,-30 -198,-89 -52,-61 -79,-138 -79,-231l0 -4480c0,-91 27,-166 79,-226 53,-61 117,-91 194,-91l2952 0c71,0 133,26 185,78 52,54 79,127 79,223l0 4517z"/>
   </clipPath>
 </defs>
 <g id="Слой_x0020_1">
  <metadata id="CorelCorpID_0Corel-Layer"/>
  <g style="clip-path:url(#id0)">
   <image x="1038" y="588" width="26201" height="5117" xlink:href="Надпись_Images\Надпись_ImgID1.png"/>
  </g>
 </g>
</svg>
